# xmcd
#
# Track frame offsets: 
#        150
#        15776
#        34564
#        49211
#        69280
#        84504
#        104850
#        117354
#        137721
#        151030
#        168950
#
# Disc length: 2531 seconds
#
# Revision: 0
# Processed by: cddbd v1.5.2PL0 Copyright (c) Steve Scherf et al.
# Submitted via: ExactAudioCopyFreeDBPlugin 1.0
#
DISCID=8009e10b
DTITLE=Southside Johnny and The Asbury Jukes - Soultime
DYEAR=2015
DGENRE=Blues
TTITLE0=Spinning
TTITLE1=All I Can Do
TTITLE2=Don't Waste My Time
TTITLE3=Looking For A Good Time
TTITLE4=Words Fail Me
TTITLE5=Walking On A Thin Line
TTITLE6=Klank
TTITLE7=Ain't Nobody's Bizness
TTITLE8=I'm Not That Lonely
TTITLE9=The Heart Always Knows
TTITLE10=Reality
EXTD=
EXTT0=
EXTT1=
EXTT2=
EXTT3=
EXTT4=
EXTT5=
EXTT6=
EXTT7=
EXTT8=
EXTT9=
EXTT10=
PLAYORDER=
